<svg width="22" height="22" viewBox="0 0 22 22" fill="none" xmlns="http://www.w3.org/2000/svg">
<path fill-rule="evenodd" clip-rule="evenodd" d="M3.66689 10.1044C4.16159 10.1044 4.56262 10.5054 4.56262 11.0001V18.3334C4.56262 18.5821 4.6614 18.8206 4.83724 18.9964C5.01307 19.1723 5.25156 19.271 5.50023 19.271H16.5002C16.7489 19.271 16.9874 19.1723 17.1632 18.9964C17.339 18.8206 17.4378 18.5821 17.4378 18.3334V11.0001C17.4378 10.5054 17.8389 10.1044 18.3336 10.1044C18.8283 10.1044 19.2293 10.5054 19.2293 11.0001V18.3334C19.2293 19.0572 18.9418 19.7514 18.43 20.2632C17.9182 20.775 17.224 21.0625 16.5002 21.0625H5.50023C4.77643 21.0625 4.08229 20.775 3.57049 20.2632C3.05869 19.7514 2.77116 19.0572 2.77116 18.3334V11.0001C2.77116 10.5054 3.17219 10.1044 3.66689 10.1044Z" fill="white"/>
<path fill-rule="evenodd" clip-rule="evenodd" d="M10.3675 1.20022C10.7173 0.850415 11.2845 0.850415 11.6343 1.20022L15.301 4.86689C15.6508 5.21669 15.6508 5.78383 15.301 6.13364C14.9512 6.48344 14.384 6.48344 14.0342 6.13364L11.0009 3.10034L7.96762 6.13364C7.61782 6.48344 7.05067 6.48344 6.70087 6.13364C6.35107 5.78383 6.35107 5.21669 6.70087 4.86689L10.3675 1.20022Z" fill="white"/>
<path fill-rule="evenodd" clip-rule="evenodd" d="M11.0004 0.937866C11.4951 0.937866 11.8961 1.3389 11.8961 1.83359V13.7503C11.8961 14.245 11.4951 14.646 11.0004 14.646C10.5057 14.646 10.1046 14.245 10.1046 13.7503V1.83359C10.1046 1.3389 10.5057 0.937866 11.0004 0.937866Z" fill="white"/>
</svg>
