<svg width="22" height="22" viewBox="0 0 22 22" fill="none" xmlns="http://www.w3.org/2000/svg">
<path fill-rule="evenodd" clip-rule="evenodd" d="M11 2.75C6.44365 2.75 2.75 6.44365 2.75 11C2.75 15.5563 6.44365 19.25 11 19.25C15.5563 19.25 19.25 15.5563 19.25 11C19.25 6.44365 15.5563 2.75 11 2.75ZM1.25 11C1.25 5.61522 5.61522 1.25 11 1.25C16.3848 1.25 20.75 5.61522 20.75 11C20.75 16.3848 16.3848 20.75 11 20.75C5.61522 20.75 1.25 16.3848 1.25 11Z" fill="white"/>
<path fill-rule="evenodd" clip-rule="evenodd" d="M8.13909 6.84255C8.37905 6.71082 8.67172 6.72029 8.90266 6.86725L14.4027 10.3673C14.619 10.5049 14.75 10.7436 14.75 11C14.75 11.2564 14.619 11.4951 14.4027 11.6327L8.90266 15.1327C8.67172 15.2797 8.37905 15.2892 8.13909 15.1575C7.89913 15.0257 7.75 14.7737 7.75 14.5V7.5C7.75 7.22626 7.89913 6.97427 8.13909 6.84255ZM9.25 8.86626V13.1337L12.603 11L9.25 8.86626Z" fill="white"/>
</svg>
