<svg width="22" height="22" viewBox="0 0 22 22" fill="none" xmlns="http://www.w3.org/2000/svg">
<g clip-path="url(#clip0_411_1125)">
<path d="M21.0835 3.66663V9.16663H15.5835" stroke="white" stroke-width="2.38861" stroke-linecap="round" stroke-linejoin="round"/>
<path d="M0.917267 18.3336V12.8336H6.41727" stroke="white" stroke-width="2.38861" stroke-linecap="round" stroke-linejoin="round"/>
<path d="M3.2181 8.25027C3.683 6.93649 4.47314 5.76189 5.51478 4.83607C6.55642 3.91025 7.81561 3.26339 9.17486 2.95584C10.5341 2.64829 11.9491 2.69009 13.2879 3.07732C14.6266 3.46455 15.8454 4.18459 16.8306 5.17027L21.0839 9.16694M0.917267 12.8336L5.1706 16.8303C6.15579 17.816 7.37461 18.536 8.71334 18.9232C10.0521 19.3105 11.4671 19.3523 12.8263 19.0447C14.1856 18.7372 15.4448 18.0903 16.4864 17.1645C17.5281 16.2387 18.3182 15.0641 18.7831 13.7503" stroke="white" stroke-width="1.79146" stroke-linecap="round" stroke-linejoin="round"/>
</g>
<defs>
<clipPath id="clip0_411_1125">
<rect width="22" height="22" fill="white"/>
</clipPath>
</defs>
</svg>
