<svg width="22" height="22" viewBox="0 0 22 22" fill="none" xmlns="http://www.w3.org/2000/svg">
<path fill-rule="evenodd" clip-rule="evenodd" d="M13.3745 1.40258C14.304 1.04781 15.32 0.987064 16.2852 1.22856C17.0849 1.42867 17.8177 1.82829 18.4169 2.38649C19.2102 2.10476 19.962 1.71571 20.651 1.22966C20.9065 1.04946 21.247 1.04662 21.5054 1.22255C21.7638 1.39847 21.886 1.71625 21.812 2.01999C21.4988 3.30628 20.8649 4.48997 19.9723 5.46196C19.9902 5.62898 19.9994 5.7969 20 5.96505L20 5.96753C20 11.5008 17.339 15.5446 13.5295 17.5723C9.73819 19.5902 4.88483 19.5717 0.552441 17.1648C0.248832 16.9961 0.100748 16.6411 0.194534 16.3067C0.288321 15.9723 0.59944 15.746 0.946481 15.7598C2.62416 15.8265 4.2838 15.4662 5.77323 14.7223C4.27633 13.8522 3.2211 12.802 2.50311 11.6683C1.60195 10.2454 1.2605 8.73637 1.1987 7.37659C1.13704 6.02008 1.35257 4.7967 1.57989 3.91776C1.69399 3.47655 1.8123 3.1174 1.90325 2.86585C1.94876 2.73996 1.98755 2.64066 2.01572 2.57114C2.0298 2.53637 2.04124 2.50901 2.04956 2.48946L2.05963 2.46604L2.06114 2.46257C2.07219 2.43692 2.08475 2.41172 2.09882 2.38709L2.75001 2.7592L3.36377 2.32816C4.21881 3.5457 5.36169 4.53287 6.69063 5.20177C7.80147 5.76089 9.01348 6.08312 10.25 6.1513V5.99982C10.2378 5.00683 10.5302 4.0339 11.088 3.21219C11.6468 2.38904 12.445 1.75736 13.3745 1.40258ZM3.03115 4.29703C2.82915 5.07921 2.64431 6.14598 2.69715 7.30848C2.74992 8.46952 3.03869 9.71048 3.77034 10.8657C4.49897 12.0162 5.69537 13.1271 7.63794 13.9905C7.8868 14.1011 8.05614 14.3379 8.08037 14.6092C8.10459 14.8804 7.97988 15.1435 7.75456 15.2964C6.57961 16.094 5.27399 16.6603 3.90716 16.9755C7.04662 17.9376 10.2401 17.6238 12.8247 16.2482C16.119 14.4948 18.4996 10.9766 18.5 5.96889C18.4992 5.76036 18.4792 5.55234 18.44 5.34751C18.393 5.10161 18.4718 4.84848 18.65 4.67269C18.9945 4.33304 19.2971 3.95667 19.5534 3.55171C19.1846 3.70971 18.8066 3.84714 18.4213 3.96318C18.1388 4.04824 17.8327 3.9598 17.6391 3.73721C17.1878 3.21836 16.5881 2.85061 15.9211 2.6837C15.254 2.51679 14.5518 2.55878 13.9094 2.80398C13.2669 3.04918 12.7153 3.48576 12.3291 4.05468C11.9429 4.6236 11.7407 5.29741 11.7499 5.98498L11.7501 5.99503H11.75V6.9117C11.75 7.31834 11.426 7.6509 11.0194 7.66145C9.28489 7.70642 7.56612 7.32172 6.01623 6.54161C4.89192 5.97571 3.88178 5.21447 3.03115 4.29703Z" fill="white"/>
</svg>
