<svg width="22" height="22" viewBox="0 0 22 22" fill="none" xmlns="http://www.w3.org/2000/svg">
<path fill-rule="evenodd" clip-rule="evenodd" d="M10.5056 0.16166C10.7827 -0.0538867 11.1708 -0.0538867 11.4479 0.16166L20.6572 7.32445C20.8441 7.46985 20.9535 7.69341 20.9535 7.93023V19.186C20.9535 19.9324 20.657 20.6481 20.1293 21.1758C19.6016 21.7035 18.8858 22 18.1395 22H3.81395C3.06765 22 2.35191 21.7035 1.82419 21.1758C1.29647 20.6481 1 19.9324 1 19.186V7.93023C1 7.69341 1.10934 7.46985 1.29628 7.32445L10.5056 0.16166ZM2.53488 8.30558V19.186C2.53488 19.5253 2.66964 19.8506 2.90951 20.0905C3.14939 20.3304 3.47472 20.4651 3.81395 20.4651H18.1395C18.4788 20.4651 18.8041 20.3304 19.044 20.0905C19.2838 19.8506 19.4186 19.5253 19.4186 19.186V8.30558L10.9767 1.73968L2.53488 8.30558Z" fill="white"/>
<path fill-rule="evenodd" clip-rule="evenodd" d="M7.13953 11C7.13953 10.5761 7.48312 10.2325 7.90697 10.2325H14.0465C14.4703 10.2325 14.8139 10.5761 14.8139 11V21.2325C14.8139 21.6564 14.4703 22 14.0465 22C13.6227 22 13.2791 21.6564 13.2791 21.2325V11.7674H8.67441V21.2325C8.67441 21.6564 8.33081 22 7.90697 22C7.48312 22 7.13953 21.6564 7.13953 21.2325V11Z" fill="white"/>
</svg>
