<svg width="22" height="22" viewBox="0 0 22 22" fill="none" xmlns="http://www.w3.org/2000/svg">
<path fill-rule="evenodd" clip-rule="evenodd" d="M10.015 2.6586C11.0236 1.65 12.3916 1.08337 13.8179 1.08337H16.591C17.0087 1.08337 17.3473 1.42198 17.3473 1.83968V5.53716C17.3473 5.95485 17.0087 6.29346 16.591 6.29346H13.8179C13.7734 6.29346 13.7306 6.31116 13.6991 6.34268C13.6676 6.3742 13.6499 6.41695 13.6499 6.46152V8.47833H16.591C16.8239 8.47833 17.0438 8.58563 17.1872 8.7692C17.3305 8.95276 17.3812 9.19213 17.3248 9.41807L16.4004 13.1155C16.3162 13.4522 16.0137 13.6884 15.6667 13.6884H13.6499V20.3271C13.6499 20.7448 13.3113 21.0834 12.8936 21.0834H9.19608C8.77838 21.0834 8.43977 20.7448 8.43977 20.3271V13.6884H6.42297C6.00527 13.6884 5.66667 13.3498 5.66667 12.9321V9.23463C5.66667 8.81694 6.00527 8.47833 6.42297 8.47833H8.43977V6.46152C8.43977 5.03515 9.0064 3.6672 10.015 2.6586ZM13.8179 2.59598C12.7927 2.59598 11.8095 3.00324 11.0846 3.72817C10.3596 4.4531 9.95238 5.43632 9.95238 6.46152V9.23463C9.95238 9.65233 9.61377 9.99094 9.19608 9.99094H7.17927V12.1758H9.19608C9.61377 12.1758 9.95238 12.5144 9.95238 12.9321V19.5708H12.1373V12.9321C12.1373 12.5144 12.4759 12.1758 12.8936 12.1758H15.0762L15.6224 9.99094H12.8936C12.4759 9.99094 12.1373 9.65233 12.1373 9.23463V6.46152C12.1373 6.01578 12.3143 5.5883 12.6295 5.27311C12.9447 4.95792 13.3722 4.78085 13.8179 4.78085H15.8347V2.59598H13.8179Z" fill="white"/>
</svg>
