<svg width="30" height="30" viewBox="0 0 30 30" fill="none" xmlns="http://www.w3.org/2000/svg">
<path fill-rule="evenodd" clip-rule="evenodd" d="M8.33337 6.5C8.33337 5.94772 8.78109 5.5 9.33337 5.5H27.75C28.3023 5.5 28.75 5.94772 28.75 6.5C28.75 7.05228 28.3023 7.5 27.75 7.5H9.33337C8.78109 7.5 8.33337 7.05228 8.33337 6.5Z" fill="white"/>
<path fill-rule="evenodd" clip-rule="evenodd" d="M8.33337 15C8.33337 14.4477 8.78109 14 9.33337 14H27.75C28.3023 14 28.75 14.4477 28.75 15C28.75 15.5523 28.3023 16 27.75 16H9.33337C8.78109 16 8.33337 15.5523 8.33337 15Z" fill="white"/>
<path fill-rule="evenodd" clip-rule="evenodd" d="M8.33337 23.5C8.33337 22.9477 8.78109 22.5 9.33337 22.5H27.75C28.3023 22.5 28.75 22.9477 28.75 23.5C28.75 24.0523 28.3023 24.5 27.75 24.5H9.33337C8.78109 24.5 8.33337 24.0523 8.33337 23.5Z" fill="white"/>
<path fill-rule="evenodd" clip-rule="evenodd" d="M1.25 6.5C1.25 5.94772 1.69772 5.5 2.25 5.5H2.26375C2.81603 5.5 3.26375 5.94772 3.26375 6.5C3.26375 7.05228 2.81603 7.5 2.26375 7.5H2.25C1.69772 7.5 1.25 7.05228 1.25 6.5Z" fill="white"/>
<path fill-rule="evenodd" clip-rule="evenodd" d="M1.25 15C1.25 14.4477 1.69772 14 2.25 14H2.26375C2.81603 14 3.26375 14.4477 3.26375 15C3.26375 15.5523 2.81603 16 2.26375 16H2.25C1.69772 16 1.25 15.5523 1.25 15Z" fill="white"/>
<path fill-rule="evenodd" clip-rule="evenodd" d="M1.25 23.5C1.25 22.9477 1.69772 22.5 2.25 22.5H2.26375C2.81603 22.5 3.26375 22.9477 3.26375 23.5C3.26375 24.0523 2.81603 24.5 2.26375 24.5H2.25C1.69772 24.5 1.25 24.0523 1.25 23.5Z" fill="white"/>
</svg>
