<svg width="22" height="22" viewBox="0 0 22 22" fill="none" xmlns="http://www.w3.org/2000/svg">
<path fill-rule="evenodd" clip-rule="evenodd" d="M10.9999 2.91663C11 2.91663 11 2.91663 11 3.66663L11 4.41663L10.9304 4.41673L10.7295 4.41744C10.5552 4.41826 10.3042 4.4199 9.99797 4.42317C9.38517 4.42973 8.55257 4.44283 7.67186 4.469C6.78996 4.49521 5.86583 4.53435 5.06816 4.59253C4.25399 4.65191 3.63369 4.72737 3.31567 4.81144C3.01319 4.89799 2.73868 5.0624 2.51958 5.28828C2.30459 5.50991 2.15038 5.78308 2.07164 6.08138C1.79446 7.6277 1.6589 9.1961 1.66666 10.7671L1.6667 10.7755C1.65679 12.354 1.79154 13.9301 2.06933 15.484C2.15625 15.7686 2.31248 16.0273 2.52421 16.2368C2.74353 16.4539 3.01501 16.6109 3.31252 16.6926C3.62959 16.777 4.25129 16.8528 5.06816 16.9124C5.86583 16.9706 6.78996 17.0097 7.67186 17.0359C8.55257 17.0621 9.38517 17.0752 9.99797 17.0817C10.3042 17.085 10.5552 17.0867 10.7295 17.0875L10.9304 17.0882L10.999 17.0883L11 17.8383C11 18.5883 11 18.5883 10.9999 18.5883L10.9271 18.5882C10.88 18.5881 10.8108 18.5879 10.7224 18.5875C10.5456 18.5866 10.2916 18.585 9.98193 18.5817C9.36296 18.575 8.52035 18.5618 7.62731 18.5353C6.73546 18.5088 5.7873 18.4688 4.95904 18.4084C4.15175 18.3495 3.3948 18.2674 2.9229 18.1412L2.91873 18.14C2.37156 17.9903 1.87226 17.702 1.46906 17.303C1.06586 16.9039 0.772394 16.4076 0.617017 15.862C0.610238 15.8382 0.604641 15.8141 0.600247 15.7898C0.301496 14.1335 0.15635 12.4532 0.166658 10.7703C0.158662 9.09994 0.303796 7.43238 0.600242 5.78852C0.603208 5.77208 0.606722 5.75573 0.61078 5.73952C0.751717 5.17644 1.03875 4.66053 1.44289 4.24389C1.84703 3.82725 2.35397 3.52464 2.91249 3.36662L2.92288 3.36368C3.39478 3.23747 4.15175 3.15539 4.95904 3.0965C5.7873 3.03609 6.73546 2.99617 7.62731 2.96967C8.52035 2.94313 9.36296 2.92988 9.98193 2.92326C10.2916 2.91995 10.5456 2.91829 10.7224 2.91746C10.8108 2.91704 10.88 2.91684 10.9271 2.91673L10.9999 2.91663ZM18.6843 16.6935C18.3663 16.7775 17.746 16.853 16.9319 16.9124C16.1342 16.9706 15.21 17.0097 14.3281 17.0359C13.4474 17.0621 12.6148 17.0752 12.002 17.0817C11.6958 17.085 11.4448 17.0867 11.2706 17.0875L11.0696 17.0882L11.001 17.0883L11 17.8383C11 18.5883 11 18.5883 10.9999 18.5883L11.0729 18.5882C11.12 18.5881 11.1892 18.5879 11.2776 18.5875C11.4544 18.5866 11.7084 18.585 12.0181 18.5817C12.637 18.575 13.4797 18.5618 14.3727 18.5353C15.2645 18.5088 16.2127 18.4688 17.041 18.4084C17.8483 18.3495 18.6052 18.2674 19.0771 18.1412L19.0875 18.1383C19.646 17.9803 20.153 17.6777 20.5571 17.261C20.9613 16.8444 21.2483 16.3285 21.3892 15.7654C21.3933 15.7492 21.3968 15.7328 21.3998 15.7164C21.694 14.0848 21.8391 12.4298 21.8333 10.7718C21.8437 9.08872 21.6985 7.40825 21.3998 5.75182C21.3968 5.73539 21.3933 5.71906 21.3892 5.70285C21.2483 5.13978 20.9613 4.62386 20.5571 4.20722C20.153 3.79058 19.646 3.48797 19.0875 3.32995C19.0788 3.32749 19.07 3.32518 19.0612 3.32303C18.5953 3.20925 17.8438 3.13448 17.0362 3.08071C16.2093 3.02563 15.2622 2.98921 14.3708 2.96503C13.4783 2.94081 12.6361 2.92872 12.0174 2.92268C11.7079 2.91965 11.454 2.91814 11.2773 2.91738L11.0727 2.91672L10.9999 2.91663C11 2.91663 11 2.91663 11 3.66663L11 4.41663L11.0697 4.41672L11.2709 4.41737C11.4452 4.41812 11.6963 4.41961 12.0027 4.42261C12.6158 4.42859 13.4488 4.44057 14.3301 4.46448C15.2124 4.48841 16.1376 4.52418 16.9366 4.57739C17.7438 4.63115 18.3659 4.69961 18.6921 4.77701C18.9915 4.86414 19.2632 5.02766 19.4804 5.25161C19.6954 5.47325 19.8496 5.74642 19.9284 6.04473C20.2077 7.60277 20.3433 9.1832 20.3334 10.7661L20.3333 10.7735C20.3389 12.3326 20.2034 13.889 19.9284 15.4236C19.8496 15.7219 19.6954 15.995 19.4804 16.2166C19.2613 16.4425 18.9868 16.6069 18.6843 16.6935Z" fill="white"/>
<path fill-rule="evenodd" clip-rule="evenodd" d="M8.56039 7.12502C8.79124 6.99073 9.0761 6.98934 9.30826 7.12137L14.5791 10.1189C14.8135 10.2522 14.9583 10.5011 14.9583 10.7708C14.9583 11.0405 14.8135 11.2894 14.5791 11.4228L9.30826 14.4203C9.0761 14.5523 8.79124 14.5509 8.56039 14.4166C8.32953 14.2823 8.1875 14.0354 8.1875 13.7683V7.77332C8.1875 7.50624 8.32953 7.25931 8.56039 7.12502ZM9.6875 9.06264V12.479L12.6912 10.7708L9.6875 9.06264Z" fill="white"/>
</svg>
