<svg width="22" height="22" viewBox="0 0 22 22" fill="none" xmlns="http://www.w3.org/2000/svg">
<path d="M19.1818 4H2.81818C1.81818 4 1 4.73469 1 5.63265V17.0612C1 17.9592 1.81818 18.6939 2.81818 18.6939H19.1818C20.1818 18.6939 21 17.9592 21 17.0612V5.63265C21 4.73469 20.1818 4 19.1818 4ZM19.1818 17.0612H2.81818V5.63265H19.1818V17.0612ZM7.36364 13.7959C7.36364 12.4408 8.58183 11.3469 10.0909 11.3469C10.4091 11.3469 10.7182 11.4041 11 11.4939V6.44898H15.5455V8.08164H12.8182V13.8204C12.8103 14.4655 12.5196 15.0817 12.009 15.5356C11.4985 15.9894 10.8093 16.2443 10.0909 16.2449C8.58183 16.2449 7.36364 15.151 7.36364 13.7959Z" fill="white"/>
</svg>
