<svg width="22" height="22" viewBox="0 0 22 22" fill="none" xmlns="http://www.w3.org/2000/svg">
<g clip-path="url(#clip0_447_1134)">
<path fill-rule="evenodd" clip-rule="evenodd" d="M6.41666 2.58331C4.29957 2.58331 2.58333 4.29955 2.58333 6.41665V15.5833C2.58333 17.7004 4.29957 19.4166 6.41666 19.4166H15.5833C17.7004 19.4166 19.4167 17.7004 19.4167 15.5833V6.41665C19.4167 4.29955 17.7004 2.58331 15.5833 2.58331H6.41666ZM1.08333 6.41665C1.08333 3.47113 3.47114 1.08331 6.41666 1.08331H15.5833C18.5288 1.08331 20.9167 3.47113 20.9167 6.41665V15.5833C20.9167 18.5288 18.5288 20.9166 15.5833 20.9166H6.41666C3.47114 20.9166 1.08333 18.5288 1.08333 15.5833V6.41665Z" fill="white"/>
<path fill-rule="evenodd" clip-rule="evenodd" d="M11.4675 8.07519C10.8606 7.98521 10.2409 8.08886 9.69633 8.37141C9.15179 8.65396 8.7102 9.10102 8.43439 9.64901C8.15857 10.197 8.06257 10.818 8.16003 11.4237C8.2575 12.0294 8.54347 12.5889 8.97726 13.0227C9.41106 13.4565 9.9706 13.7425 10.5763 13.8399C11.182 13.9374 11.803 13.8414 12.351 13.5656C12.8989 13.2898 13.346 12.8482 13.6286 12.3036C13.9111 11.7591 14.0148 11.1393 13.9248 10.5325C13.833 9.91348 13.5445 9.34041 13.1021 8.89792C12.6596 8.45543 12.0865 8.16698 11.4675 8.07519ZM9.00547 7.03998C9.83006 6.61211 10.7686 6.45515 11.6875 6.59142C12.6249 6.73042 13.4927 7.1672 14.1627 7.83726C14.8328 8.50731 15.2696 9.37511 15.4086 10.3125C15.5448 11.2314 15.3879 12.1699 14.96 12.9945C14.5321 13.8191 13.8552 14.4878 13.0253 14.9054C12.1955 15.3231 11.2552 15.4685 10.338 15.3209C9.42079 15.1733 8.57349 14.7403 7.9166 14.0834C7.25971 13.4265 6.82667 12.5792 6.67908 11.662C6.5315 10.7448 6.67687 9.80443 7.09454 8.97462C7.5122 8.14482 8.18088 7.46784 9.00547 7.03998Z" fill="white"/>
<path fill-rule="evenodd" clip-rule="evenodd" d="M15.2917 5.95831C15.2917 5.5441 15.6275 5.20831 16.0417 5.20831H16.0517C16.4659 5.20831 16.8017 5.5441 16.8017 5.95831C16.8017 6.37253 16.4659 6.70831 16.0517 6.70831H16.0417C15.6275 6.70831 15.2917 6.37253 15.2917 5.95831Z" fill="white"/>
</g>
<defs>
<clipPath id="clip0_447_1134">
<rect width="22" height="22" fill="white"/>
</clipPath>
</defs>
</svg>
