<svg width="22" height="22" viewBox="0 0 22 22" fill="none" xmlns="http://www.w3.org/2000/svg">
<path fill-rule="evenodd" clip-rule="evenodd" d="M10.2222 10.2222C10.6518 9.79263 11.3482 9.79263 11.7778 10.2222L15.4445 13.8889C15.8741 14.3185 15.8741 15.0149 15.4445 15.4445C15.0149 15.8741 14.3184 15.8741 13.8889 15.4445L11 12.5557L8.11115 15.4445C7.68157 15.8741 6.98509 15.8741 6.55552 15.4445C6.12594 15.0149 6.12594 14.3185 6.55552 13.8889L10.2222 10.2222Z" fill="white"/>
<path fill-rule="evenodd" clip-rule="evenodd" d="M11 10.175C11.4556 10.175 11.825 10.5444 11.825 11V19.25C11.825 19.7057 11.4556 20.075 11 20.075C10.5444 20.075 10.175 19.7057 10.175 19.25V11C10.175 10.5444 10.5444 10.175 11 10.175Z" fill="white"/>
<path fill-rule="evenodd" clip-rule="evenodd" d="M7.94473 1.93278C9.17708 1.88737 10.4037 2.12193 11.5323 2.61882C12.661 3.1157 13.6623 3.86199 14.461 4.80157C15.12 5.57672 15.6269 6.46679 15.9574 7.42499H16.5C17.7016 7.42579 18.8692 7.8267 19.8177 8.56447C20.7661 9.30224 21.4418 10.3348 21.7382 11.4993C22.0346 12.6638 21.9347 13.8938 21.4544 14.9952C20.9741 16.0966 20.1407 17.0067 19.0857 17.5818C18.6857 17.7999 18.1846 17.6524 17.9665 17.2524C17.7484 16.8523 17.8959 16.3512 18.2959 16.1331C19.0291 15.7335 19.6082 15.101 19.942 14.3356C20.2758 13.5702 20.3451 12.7155 20.1392 11.9063C19.9332 11.0971 19.4636 10.3795 18.8046 9.86683C18.1456 9.35426 17.3348 9.07567 16.5 9.07499C16.4998 9.07499 16.5002 9.07499 16.5 9.07499M16.5 9.07499H15.345C14.9689 9.07499 14.6404 8.82063 14.5463 8.4565C14.3 7.50404 13.8411 6.61979 13.2039 5.87024C12.5667 5.12069 11.7679 4.52534 10.8675 4.12895C9.96712 3.73256 8.98859 3.54544 8.00548 3.58166C7.02237 3.61788 6.06026 3.8765 5.19149 4.33808C4.32272 4.79965 3.56989 5.45217 2.98959 6.24658C2.4093 7.04098 2.01665 7.95661 1.84117 8.9246C1.66568 9.8926 1.71191 10.8878 1.9764 11.8353C2.24089 12.7829 2.71675 13.6582 3.3682 14.3953C3.66992 14.7368 3.63773 15.2581 3.29631 15.5599C2.95489 15.8616 2.43352 15.8294 2.1318 15.488C1.31519 14.5639 0.718695 13.4667 0.387153 12.2789C0.0556103 11.0912 -0.00235007 9.84368 0.217629 8.63027C0.437609 7.41687 0.929803 6.26911 1.65721 5.27331C2.38462 4.2775 3.32831 3.45956 4.41733 2.88096C5.50636 2.30237 6.71238 1.97818 7.94473 1.93278" fill="white"/>
<path fill-rule="evenodd" clip-rule="evenodd" d="M10.4166 10.4167C10.7388 10.0945 11.2612 10.0945 11.5834 10.4167L15.25 14.0834C15.5722 14.4055 15.5722 14.9279 15.25 15.2501C14.9278 15.5723 14.4055 15.5723 14.0833 15.2501L11 12.1668L7.9167 15.2501C7.59451 15.5723 7.07215 15.5723 6.74997 15.2501C6.42779 14.9279 6.42779 14.4055 6.74997 14.0834L10.4166 10.4167Z" fill="white"/>
</svg>
