<svg width="22" height="22" viewBox="0 0 22 22" fill="none" xmlns="http://www.w3.org/2000/svg">
<g clip-path="url(#clip0_329_86)">
<path fill-rule="evenodd" clip-rule="evenodd" d="M3.00016 9.69995C3.44199 9.69995 3.80016 10.0581 3.80016 10.5V19.2833H18.2002V10.5C18.2002 10.0581 18.5583 9.69995 19.0002 9.69995C19.442 9.69995 19.8002 10.0581 19.8002 10.5V20.0833C19.8002 20.5251 19.442 20.8833 19.0002 20.8833H3.00016C2.55834 20.8833 2.20016 20.5251 2.20016 20.0833V10.5C2.20016 10.0581 2.55834 9.69995 3.00016 9.69995Z" fill="white"/>
<path fill-rule="evenodd" clip-rule="evenodd" d="M0.19931 5.70845C0.19931 5.26662 0.557483 4.90845 0.99931 4.90845H20.9993C21.4411 4.90845 21.7993 5.26662 21.7993 5.70845V10.5001C21.7993 10.9419 21.4411 11.3001 20.9993 11.3001H0.99931C0.557483 11.3001 0.19931 10.9419 0.19931 10.5001V5.70845ZM1.79931 6.50845V9.70011H20.1993V6.50845H1.79931Z" fill="white"/>
<path fill-rule="evenodd" clip-rule="evenodd" d="M10.9993 4.90845C11.4412 4.90845 11.7993 5.26662 11.7993 5.70845V20.0834C11.7993 20.5253 11.4412 20.8834 10.9993 20.8834C10.5575 20.8834 10.1993 20.5253 10.1993 20.0834V5.70845C10.1993 5.26662 10.5575 4.90845 10.9993 4.90845Z" fill="white"/>
<path fill-rule="evenodd" clip-rule="evenodd" d="M6.49885 1.7167C6.03726 1.7167 5.60106 1.89275 5.28461 2.19601C4.96931 2.49817 4.79885 2.90054 4.79885 3.31253C4.79885 3.72452 4.96931 4.12689 5.28461 4.42905C5.60106 4.73232 6.03726 4.90837 6.49885 4.90837H9.92239C9.78854 4.54715 9.60629 4.12681 9.3675 3.71074C8.73476 2.60824 7.82124 1.7167 6.49885 1.7167ZM10.9989 5.70837C11.782 5.54493 11.7819 5.54465 11.7819 5.54434L11.7817 5.54364L11.7813 5.5419L11.7803 5.53712L11.7771 5.52238C11.7744 5.51029 11.7707 5.49373 11.7659 5.47298C11.7562 5.43151 11.7421 5.37323 11.7231 5.30054C11.6853 5.15532 11.6278 4.95159 11.5475 4.70867C11.3879 4.22565 11.1336 3.57357 10.7552 2.91432C10.0129 1.62099 8.67646 0.116699 6.49885 0.116699C5.63436 0.116699 4.79879 0.445488 4.17756 1.04083C3.55517 1.63729 3.19885 2.45369 3.19885 3.31253C3.19885 4.17137 3.55517 4.98778 4.17756 5.58423C4.79879 6.17958 5.63436 6.50837 6.49885 6.50837H10.9989C11.2397 6.50837 11.4677 6.39986 11.6196 6.21297C11.7716 6.02608 11.8312 5.7807 11.782 5.54493L10.9989 5.70837Z" fill="white"/>
<path fill-rule="evenodd" clip-rule="evenodd" d="M11.243 2.91432C11.9853 1.62099 13.3217 0.116699 15.4993 0.116699C16.3638 0.116699 17.1994 0.445488 17.8206 1.04083C18.443 1.63729 18.7993 2.45369 18.7993 3.31253C18.7993 4.17137 18.443 4.98778 17.8206 5.58423C17.1994 6.17958 16.3638 6.50837 15.4993 6.50837H10.9993C10.7585 6.50837 10.5305 6.39986 10.3786 6.21297C10.2266 6.02608 10.167 5.7807 10.2162 5.54493L10.9993 5.70837C10.2162 5.54493 10.2163 5.54465 10.2163 5.54434L10.2165 5.54364L10.2169 5.5419L10.2179 5.53712L10.2211 5.52238C10.2238 5.51029 10.2275 5.49373 10.2323 5.47298C10.242 5.43151 10.2561 5.37323 10.2751 5.30054C10.3129 5.15532 10.3704 4.95159 10.4507 4.70867C10.6103 4.22565 10.8646 3.57357 11.243 2.91432ZM12.0758 4.90837H15.4993C15.9609 4.90837 16.3971 4.73232 16.7136 4.42905C17.0289 4.12689 17.1993 3.72452 17.1993 3.31253C17.1993 2.90054 17.0289 2.49817 16.7136 2.19601C16.3971 1.89275 15.9609 1.7167 15.4993 1.7167C14.177 1.7167 13.2634 2.60824 12.6307 3.71074C12.3919 4.12681 12.2097 4.54715 12.0758 4.90837Z" fill="white"/>
</g>
<defs>
<clipPath id="clip0_329_86">
<rect width="22" height="22" fill="white"/>
</clipPath>
</defs>
</svg>
