<svg width="22" height="22" viewBox="0 0 22 22" fill="none" xmlns="http://www.w3.org/2000/svg">
<g clip-path="url(#clip0_447_1134)">
<path fill-rule="evenodd" clip-rule="evenodd" d="M6.41666 2.58337C4.29957 2.58337 2.58333 4.29962 2.58333 6.41671V15.5834C2.58333 17.7005 4.29957 19.4167 6.41666 19.4167H15.5833C17.7004 19.4167 19.4167 17.7005 19.4167 15.5834V6.41671C19.4167 4.29962 17.7004 2.58337 15.5833 2.58337H6.41666ZM1.08333 6.41671C1.08333 3.47119 3.47114 1.08337 6.41666 1.08337H15.5833C18.5288 1.08337 20.9167 3.47119 20.9167 6.41671V15.5834C20.9167 18.5289 18.5288 20.9167 15.5833 20.9167H6.41666C3.47114 20.9167 1.08333 18.5289 1.08333 15.5834V6.41671Z" fill="white"/>
<path fill-rule="evenodd" clip-rule="evenodd" d="M11.4675 8.07525C10.8606 7.98527 10.2409 8.08892 9.69633 8.37147C9.15179 8.65402 8.7102 9.10108 8.43439 9.64907C8.15857 10.1971 8.06257 10.8181 8.16003 11.4237C8.2575 12.0294 8.54347 12.589 8.97726 13.0228C9.41106 13.4566 9.9706 13.7425 10.5763 13.84C11.182 13.9375 11.803 13.8415 12.351 13.5656C12.8989 13.2898 13.346 12.8482 13.6286 12.3037C13.9111 11.7592 14.0148 11.1394 13.9248 10.5325C13.833 9.91354 13.5445 9.34047 13.1021 8.89798C12.6596 8.45549 12.0865 8.16704 11.4675 8.07525ZM9.00547 7.04004C9.83006 6.61217 10.7686 6.45521 11.6875 6.59148C12.6249 6.73048 13.4927 7.16726 14.1627 7.83732C14.8328 8.50737 15.2696 9.37517 15.4086 10.3125C15.5448 11.2315 15.3879 12.17 14.96 12.9946C14.5321 13.8191 13.8552 14.4878 13.0253 14.9055C12.1955 15.3232 11.2552 15.4685 10.338 15.3209C9.42079 15.1734 8.57349 14.7403 7.9166 14.0834C7.25971 13.4265 6.82667 12.5792 6.67908 11.662C6.5315 10.7449 6.67687 9.80449 7.09454 8.97468C7.5122 8.14488 8.18088 7.4679 9.00547 7.04004Z" fill="white"/>
<path fill-rule="evenodd" clip-rule="evenodd" d="M15.2917 5.95837C15.2917 5.54416 15.6275 5.20837 16.0417 5.20837H16.0517C16.4659 5.20837 16.8017 5.54416 16.8017 5.95837C16.8017 6.37259 16.4659 6.70837 16.0517 6.70837H16.0417C15.6275 6.70837 15.2917 6.37259 15.2917 5.95837Z" fill="white"/>
</g>
<defs>
<clipPath id="clip0_447_1134">
<rect width="22" height="22" fill="white"/>
</clipPath>
</defs>
</svg>
