<svg width="22" height="22" viewBox="0 0 22 22" fill="none" xmlns="http://www.w3.org/2000/svg">
<path fill-rule="evenodd" clip-rule="evenodd" d="M13.3745 1.40264C14.304 1.04787 15.32 0.987125 16.2852 1.22862C17.0849 1.42873 17.8177 1.82835 18.4169 2.38655C19.2102 2.10482 19.962 1.71578 20.651 1.22972C20.9065 1.04952 21.247 1.04669 21.5054 1.22261C21.7638 1.39853 21.886 1.71631 21.812 2.02006C21.4988 3.30634 20.8649 4.49003 19.9723 5.46202C19.9902 5.62904 19.9994 5.79696 20 5.96511L20 5.96759C20 11.5009 17.339 15.5447 13.5295 17.5724C9.73819 19.5903 4.88483 19.5718 0.552441 17.1649C0.248832 16.9962 0.100748 16.6411 0.194534 16.3067C0.288321 15.9723 0.59944 15.746 0.946481 15.7599C2.62416 15.8266 4.2838 15.4663 5.77323 14.7224C4.27633 13.8522 3.2211 12.802 2.50311 11.6684C1.60195 10.2455 1.2605 8.73644 1.1987 7.37665C1.13704 6.02014 1.35257 4.79677 1.57989 3.91783C1.69399 3.47661 1.8123 3.11746 1.90325 2.86591C1.94876 2.74002 1.98755 2.64073 2.01572 2.5712C2.0298 2.53643 2.04124 2.50907 2.04956 2.48953L2.05963 2.4661L2.06114 2.46263C2.07219 2.43698 2.08475 2.41178 2.09882 2.38715L2.75001 2.75926L3.36377 2.32823C4.21881 3.54576 5.36169 4.53293 6.69063 5.20183C7.80147 5.76095 9.01348 6.08318 10.25 6.15136V5.99988C10.2378 5.00689 10.5302 4.03396 11.088 3.21226C11.6468 2.3891 12.445 1.75742 13.3745 1.40264ZM3.03115 4.29709C2.82915 5.07928 2.64431 6.14604 2.69715 7.30854C2.74992 8.46958 3.03869 9.71054 3.77034 10.8658C4.49897 12.0163 5.69537 13.1272 7.63794 13.9906C7.8868 14.1012 8.05614 14.338 8.08037 14.6092C8.10459 14.8805 7.97988 15.1435 7.75456 15.2965C6.57961 16.094 5.27399 16.6603 3.90716 16.9756C7.04662 17.9376 10.2401 17.6239 12.8247 16.2482C16.119 14.4948 18.4996 10.9766 18.5 5.96896C18.4992 5.76042 18.4792 5.5524 18.44 5.34757C18.393 5.10168 18.4718 4.84854 18.65 4.67275C18.9945 4.3331 19.2971 3.95673 19.5534 3.55178C19.1846 3.70977 18.8066 3.8472 18.4213 3.96324C18.1388 4.0483 17.8327 3.95987 17.6391 3.73727C17.1878 3.21842 16.5881 2.85067 15.9211 2.68376C15.254 2.51685 14.5518 2.55884 13.9094 2.80404C13.2669 3.04924 12.7153 3.48582 12.3291 4.05474C11.9429 4.62366 11.7407 5.29747 11.7499 5.98504L11.7501 5.99509H11.75V6.91176C11.75 7.3184 11.426 7.65097 11.0194 7.66151C9.28489 7.70648 7.56612 7.32179 6.01623 6.54168C4.89192 5.97577 3.88178 5.21453 3.03115 4.29709Z" fill="white"/>
</svg>
