<svg width="22" height="22" viewBox="0 0 22 22" fill="none" xmlns="http://www.w3.org/2000/svg">
<path d="M5 20.5C4.45 20.5 3.97933 20.3137 3.588 19.941C3.196 19.5676 3 19.119 3 18.5952C3 14.876 3 12.7907 3 9.07143C3 8.54762 3.196 8.09905 3.588 7.72571C3.97933 7.35302 4.45 7.16667 5 7.16667H6V5.2619C6 3.94444 6.48767 2.82127 7.463 1.89238C8.43767 0.964127 9.61667 0.5 11 0.5C12.3833 0.5 13.5627 0.964127 14.538 1.89238C15.5127 2.82127 16 3.94444 16 5.2619V7.16667H17C17.55 7.16667 18.021 7.35302 18.413 7.72571C18.8043 8.09905 19 8.54762 19 9.07143V18.5952C19 19.119 18.8043 19.5676 18.413 19.941C18.021 20.3137 17.55 20.5 17 20.5H5ZM5 18.5952H17V9.07143H5V18.5952ZM11 15.7381C11.55 15.7381 12.021 15.5517 12.413 15.179C12.8043 14.8057 13 14.3571 13 13.8333C13 13.3095 12.8043 12.861 12.413 12.4876C12.021 12.1149 11.55 11.9286 11 11.9286C10.45 11.9286 9.97933 12.1149 9.588 12.4876C9.196 12.861 9 13.3095 9 13.8333C9 14.3571 9.196 14.8057 9.588 15.179C9.97933 15.5517 10.45 15.7381 11 15.7381ZM8 7.16667H14V5.2619C14 4.46825 13.7083 3.79365 13.125 3.2381C12.5417 2.68254 11.8333 2.40476 11 2.40476C10.1667 2.40476 9.45833 2.68254 8.875 3.2381C8.29167 3.79365 8 4.46825 8 5.2619V7.16667Z" fill="white"/>
</svg>
