<svg width="17" height="17" viewBox="0 0 17 17" fill="none" xmlns="http://www.w3.org/2000/svg">
<path fill-rule="evenodd" clip-rule="evenodd" d="M16.7071 0.292893C17.0976 0.683417 17.0976 1.31658 16.7071 1.70711L1.70711 16.7071C1.31658 17.0976 0.683417 17.0976 0.292893 16.7071C-0.0976311 16.3166 -0.0976311 15.6834 0.292893 15.2929L15.2929 0.292893C15.6834 -0.0976311 16.3166 -0.0976311 16.7071 0.292893Z" fill="white"/>
<path fill-rule="evenodd" clip-rule="evenodd" d="M0.292893 0.292893C0.683417 -0.0976311 1.31658 -0.0976311 1.70711 0.292893L16.7071 15.2929C17.0976 15.6834 17.0976 16.3166 16.7071 16.7071C16.3166 17.0976 15.6834 17.0976 15.2929 16.7071L0.292893 1.70711C-0.0976311 1.31658 -0.0976311 0.683417 0.292893 0.292893Z" fill="white"/>
</svg>
