<svg width="22" height="22" viewBox="0 0 22 22" fill="none" xmlns="http://www.w3.org/2000/svg">
<path d="M3.64474 20H12.7584C13.3051 20.0003 13.8454 19.8821 14.3421 19.6537C14.8388 19.4252 15.28 19.0918 15.6356 18.6765L20.469 13.0378C20.5703 12.9199 20.6409 12.779 20.6748 12.6274C20.7087 12.4757 20.7048 12.3181 20.6635 12.1684C20.6221 12.0186 20.5445 11.8813 20.4376 11.7686C20.3307 11.6559 20.1977 11.5712 20.0503 11.522L18.1859 10.9005C17.7353 10.7541 17.2555 10.7209 16.789 10.804C16.3226 10.8871 15.8838 11.084 15.5115 11.3771L12.4941 13.79L11.9096 12.62C11.5964 11.9893 11.1129 11.4589 10.5138 11.0889C9.91477 10.7189 9.22404 10.524 8.51989 10.5263H3.64474C2.59979 10.5263 1.75 11.3761 1.75 12.4211V18.1053C1.75 19.1502 2.59979 20 3.64474 20ZM3.64474 12.4211H8.51989C9.24273 12.4211 9.89168 12.8218 10.2147 13.4679L10.6382 14.3158H6.48684V16.2105H12.1843C12.3301 16.2086 12.4734 16.1729 12.603 16.1063L12.6059 16.1054L12.6097 16.1035H12.6125L12.6144 16.1025H12.6182L12.6192 16.1016C12.6277 16.1044 12.622 16.1006 12.622 16.1006C12.6315 16.1006 12.6239 16.0997 12.6239 16.0997H12.6248L12.6267 16.0987L12.6296 16.0978L12.6315 16.0968L12.6334 16.0959L12.6362 16.0949L12.6381 16.094C12.6409 16.094 12.639 16.0931 12.64 16.0931L12.6428 16.0912L12.6447 16.0902L12.6466 16.0893L12.6495 16.0883L12.6514 16.0874H12.6523L12.6542 16.0864L12.657 16.0855L12.6589 16.0845C12.6675 16.0836 12.6618 16.0836 12.6618 16.0836L12.6637 16.0826C12.7002 16.0606 12.735 16.0359 12.7679 16.0087L16.6957 12.8663C16.9439 12.6693 17.2859 12.6077 17.5862 12.7081L18.1139 12.8843L14.1984 17.4535C14.0183 17.658 13.7968 17.8219 13.5485 17.9342C13.3002 18.0466 13.0309 18.1049 12.7584 18.1053H3.64474V12.4211ZM15.0132 2.00001H14.997C14.8426 2.0019 14.044 2.03696 13.1184 2.6679C12.2175 2.05401 11.4378 2.00475 11.254 2.00096L11.2256 2.00001H11.2218C10.4629 2.00001 9.74863 2.29654 9.21431 2.8318C8.6781 3.36896 8.38158 4.08232 8.38158 4.84211C8.38158 5.6019 8.6781 6.31527 9.19726 6.83538L12.4316 10.2326C12.5206 10.325 12.6273 10.3985 12.7453 10.4486C12.8634 10.4988 12.9904 10.5246 13.1186 10.5245C13.2469 10.5244 13.3738 10.4984 13.4918 10.4481C13.6098 10.3978 13.7164 10.3242 13.8053 10.2317L17.0225 6.85148C17.5597 6.31527 17.8553 5.6019 17.8553 4.84211C17.8553 4.08232 17.5587 3.36896 17.0235 2.83275C16.7604 2.568 16.4474 2.35808 16.1027 2.21513C15.7579 2.07219 15.3883 1.99907 15.015 2.00001H15.0132ZM15.9605 4.84211C15.9605 5.09506 15.862 5.33285 15.6659 5.52895L13.1184 8.20527L10.5539 5.5119C10.3748 5.33285 10.2763 5.09506 10.2763 4.84211C10.2763 4.58917 10.3748 4.35138 10.5548 4.17138C10.7262 3.99711 10.9594 3.89767 11.2038 3.89474C11.2275 3.89569 11.6794 3.92506 12.2146 4.35422C12.2914 4.4158 12.369 4.4859 12.4486 4.56453L13.1184 5.23432L13.7882 4.56453C13.8678 4.4859 13.9455 4.4158 14.0222 4.35422C14.5234 3.95159 14.9468 3.90138 15.0188 3.89569C15.1423 3.89567 15.2646 3.9201 15.3786 3.96758C15.4925 4.01506 15.596 4.08465 15.6829 4.17232C15.862 4.35138 15.9605 4.58917 15.9605 4.84211Z" fill="white"/>
</svg>
