<svg width="22" height="22" viewBox="0 0 22 22" fill="none" xmlns="http://www.w3.org/2000/svg">
<path d="M11 2C13.314 2 15.456 2.38653 17.058 3.05063C17.857 3.38221 18.567 3.80095 19.09 4.31442C19.575 4.78811 19.935 5.38305 19.992 6.07274L20 6.26316V15.7368C20 16.508 19.619 17.1674 19.09 17.6856C18.567 18.1991 17.857 18.6178 17.058 18.9494C15.456 19.6125 13.314 20 11 20C8.686 20 6.544 19.6135 4.942 18.9494C4.143 18.6178 3.433 18.1991 2.91 17.6856C2.425 17.2119 2.065 16.6169 2.008 15.9273L2 15.7368V6.26316C2 5.492 2.381 4.83263 2.91 4.31442C3.433 3.80095 4.143 3.38221 4.942 3.05063C6.544 2.38747 8.686 2 11 2ZM18 13.754C17.6969 13.9261 17.3822 14.0792 17.058 14.2125C15.456 14.8757 13.314 15.2632 11 15.2632C8.686 15.2632 6.544 14.8766 4.942 14.2125C4.6178 14.0793 4.30314 13.9261 4 13.754V15.7368C4 15.8808 4.066 16.0931 4.348 16.3687C4.634 16.6492 5.096 16.9447 5.744 17.2138C7.038 17.75 8.895 18.1053 11 18.1053C13.105 18.1053 14.962 17.75 16.256 17.2138C16.904 16.9447 17.366 16.6492 17.652 16.3687C17.934 16.094 18 15.8808 18 15.7368V13.754ZM18 9.01716C17.6969 9.18923 17.3822 9.3424 17.058 9.47568C15.456 10.1388 13.314 10.5263 11 10.5263C8.686 10.5263 6.544 10.1398 4.942 9.47568C4.6178 9.34242 4.30314 9.18925 4 9.01716V11C4 11.144 4.066 11.3562 4.348 11.6319C4.634 11.9123 5.096 12.2079 5.744 12.4769C7.038 13.0132 8.895 13.3684 11 13.3684C13.105 13.3684 14.962 13.0132 16.256 12.4769C16.904 12.2079 17.366 11.9123 17.652 11.6319C17.934 11.3572 18 11.144 18 11V9.01716ZM11 3.89474C8.895 3.89474 7.038 4.25 5.744 4.78621C5.096 5.05526 4.634 5.35084 4.348 5.63126C4.066 5.906 4 6.11916 4 6.26316C4 6.40716 4.066 6.61937 4.348 6.89505C4.634 7.17547 5.096 7.47105 5.744 7.74011C7.038 8.27632 8.895 8.63158 11 8.63158C13.105 8.63158 14.962 8.27632 16.256 7.74011C16.904 7.47105 17.366 7.17547 17.652 6.89505C17.934 6.62032 18 6.40716 18 6.26316C18 6.11916 17.934 5.90695 17.652 5.63126C17.366 5.35084 16.904 5.05526 16.256 4.78621C14.962 4.25 13.105 3.89474 11 3.89474Z" fill="white"/>
</svg>
