<svg width="22" height="22" viewBox="0 0 22 22" fill="none" xmlns="http://www.w3.org/2000/svg">
<path fill-rule="evenodd" clip-rule="evenodd" d="M11 19.3333C15.6024 19.3333 19.3333 15.6024 19.3333 11C19.3333 6.39763 15.6024 2.66667 11 2.66667C6.39763 2.66667 2.66667 6.39763 2.66667 11C2.66667 15.6024 6.39763 19.3333 11 19.3333ZM11 21C16.5228 21 21 16.5228 21 11C21 5.47715 16.5228 1 11 1C5.47715 1 1 5.47715 1 11C1 16.5228 5.47715 21 11 21Z" fill="white"/>
<path d="M11 6L12.545 8.96215L16 9.44006L13.5 11.7445L14.09 15L11 13.4621L7.91 15L8.5 11.7445L6 9.44006L9.455 8.96215L11 6Z" fill="white"/>
<path fill-rule="evenodd" clip-rule="evenodd" d="M11 5.33887C11.2464 5.33887 11.4723 5.47584 11.5862 5.69426L12.9735 8.35398L16.0906 8.78517C16.344 8.82022 16.5544 8.9983 16.6309 9.2424C16.7074 9.48651 16.6362 9.75283 16.4481 9.92621L14.2154 11.9843L14.7406 14.8821C14.7852 15.1282 14.687 15.3785 14.487 15.5287C14.287 15.6789 14.0194 15.7034 13.7954 15.5919L11 14.2007L8.20458 15.5919C7.98065 15.7034 7.71299 15.6789 7.51298 15.5287C7.31297 15.3785 7.21485 15.1282 7.25946 14.8821L7.78464 11.9843L5.55191 9.92621C5.36382 9.75283 5.29262 9.48651 5.3691 9.2424C5.44558 8.9983 5.65602 8.82022 5.90941 8.78517L9.02654 8.35398L10.4138 5.69426C10.5277 5.47584 10.7537 5.33887 11 5.33887ZM11 7.42965L10.0412 9.26791C9.94224 9.45764 9.75757 9.58775 9.5456 9.61707L7.47781 9.9031L8.9481 11.2584C9.11454 11.4118 9.19092 11.6397 9.15055 11.8624L8.79564 13.8207L10.7054 12.8703C10.891 12.7779 11.1091 12.7779 11.2946 12.8703L13.2044 13.8207L12.8495 11.8624C12.8091 11.6397 12.8855 11.4118 13.0519 11.2584L14.5222 9.9031L12.4544 9.61707C12.2424 9.58775 12.0578 9.45764 11.9588 9.26791L11 7.42965Z" fill="white"/>
</svg>
