<svg width="22" height="22" viewBox="0 0 22 22" fill="none" xmlns="http://www.w3.org/2000/svg">
<path fill-rule="evenodd" clip-rule="evenodd" d="M9.97877 2.64541C10.979 1.64522 12.3355 1.08331 13.75 1.08331H16.5C16.9142 1.08331 17.25 1.4191 17.25 1.83331V5.49998C17.25 5.91419 16.9142 6.24998 16.5 6.24998H13.75C13.7058 6.24998 13.6634 6.26754 13.6322 6.2988C13.6009 6.33005 13.5833 6.37244 13.5833 6.41665V8.41665H16.5C16.731 8.41665 16.949 8.52305 17.0912 8.70509C17.2333 8.88712 17.2836 9.12449 17.2276 9.34855L16.3109 13.0152C16.2275 13.3491 15.9275 13.5833 15.5833 13.5833H13.5833V20.1666C13.5833 20.5809 13.2476 20.9166 12.8333 20.9166H9.16667C8.75246 20.9166 8.41667 20.5809 8.41667 20.1666V13.5833H6.41667C6.00246 13.5833 5.66667 13.2475 5.66667 12.8333V9.16665C5.66667 8.75243 6.00246 8.41665 6.41667 8.41665H8.41667V6.41665C8.41667 5.00216 8.97857 3.6456 9.97877 2.64541ZM13.75 2.58331C12.7333 2.58331 11.7583 2.98718 11.0394 3.70607C10.3205 4.42496 9.91667 5.39998 9.91667 6.41665V9.16665C9.91667 9.58086 9.58089 9.91665 9.16667 9.91665H7.16667V12.0833H9.16667C9.58089 12.0833 9.91667 12.4191 9.91667 12.8333V19.4166H12.0833V12.8333C12.0833 12.4191 12.4191 12.0833 12.8333 12.0833H14.9978L15.5394 9.91665H12.8333C12.4191 9.91665 12.0833 9.58086 12.0833 9.16665V6.41665C12.0833 5.97462 12.2589 5.5507 12.5715 5.23814C12.8841 4.92558 13.308 4.74998 13.75 4.74998H15.75V2.58331H13.75Z" fill="white"/>
</svg>
