<svg width="22" height="22" viewBox="0 0 22 22" fill="none" xmlns="http://www.w3.org/2000/svg">
<g clip-path="url(#clip0_329_92)">
<path fill-rule="evenodd" clip-rule="evenodd" d="M10.4503 9.16174C9.84491 9.16174 9.35415 9.65251 9.35415 10.2579V18.5656C9.35415 19.171 9.84491 19.6617 10.4503 19.6617H18.758C19.3634 19.6617 19.8541 19.171 19.8541 18.5656V10.2579C19.8541 9.65251 19.3634 9.16174 18.758 9.16174H10.4503ZM7.85415 10.2579C7.85415 8.82408 9.01649 7.66174 10.4503 7.66174H18.758C20.1918 7.66174 21.3541 8.82408 21.3541 10.2579V18.5656C21.3541 19.9994 20.1918 21.1617 18.758 21.1617H10.4503C9.01649 21.1617 7.85415 19.9994 7.85415 18.5656V10.2579Z" fill="white"/>
<path fill-rule="evenodd" clip-rule="evenodd" d="M3.03854 1.75C2.74782 1.75 2.46901 1.86549 2.26344 2.07106C2.05787 2.27662 1.94238 2.55544 1.94238 2.84615V11.1538C1.94238 11.4446 2.05787 11.7234 2.26344 11.9289C2.46901 12.1345 2.74782 12.25 3.03854 12.25H3.96161C4.37583 12.25 4.71161 12.5858 4.71161 13C4.71161 13.4142 4.37583 13.75 3.96161 13.75H3.03854C2.34999 13.75 1.68965 13.4765 1.20278 12.9896C0.715905 12.5027 0.442383 11.8424 0.442383 11.1538V2.84615C0.442383 2.15761 0.715905 1.49727 1.20278 1.0104C1.68965 0.523522 2.34999 0.25 3.03854 0.25H11.3462C12.0348 0.25 12.6951 0.523523 13.182 1.0104C13.6689 1.49727 13.9424 2.15761 13.9424 2.84615V3.76923C13.9424 4.18344 13.6066 4.51923 13.1924 4.51923C12.7782 4.51923 12.4424 4.18344 12.4424 3.76923V2.84615C12.4424 2.55544 12.3269 2.27662 12.1213 2.07106C11.9158 1.86549 11.6369 1.75 11.3462 1.75H3.03854Z" fill="white"/>
</g>
<defs>
<clipPath id="clip0_329_92">
<rect width="22" height="22" fill="white"/>
</clipPath>
</defs>
</svg>
