<svg width="22" height="22" viewBox="0 0 22 22" fill="none" xmlns="http://www.w3.org/2000/svg">
<path fill-rule="evenodd" clip-rule="evenodd" d="M10.9999 2.91669C10.9999 2.91669 11 2.91669 11 3.66669L11 4.41669L10.9304 4.41679L10.7294 4.4175C10.5552 4.41832 10.3042 4.41996 9.99796 4.42323C9.38516 4.42979 8.55256 4.44289 7.67185 4.46906C6.78995 4.49527 5.86582 4.53441 5.06815 4.59259C4.25398 4.65197 3.63369 4.72743 3.31566 4.8115C3.01318 4.89806 2.73867 5.06246 2.51957 5.28834C2.30458 5.50998 2.15038 5.78314 2.07163 6.08144C1.79445 7.62776 1.65889 9.19616 1.66665 10.7671L1.66669 10.7756C1.65678 12.3541 1.79153 13.9302 2.06932 15.4841C2.15624 15.7686 2.31247 16.0273 2.5242 16.2369C2.74352 16.4539 3.015 16.6109 3.31251 16.6927C3.62958 16.7771 4.25128 16.8529 5.06815 16.9125C5.86582 16.9706 6.78995 17.0098 7.67185 17.036C8.55256 17.0621 9.38516 17.0753 9.99796 17.0818C10.3042 17.0851 10.5552 17.0867 10.7294 17.0875L10.9304 17.0883L10.999 17.0884L11 17.8384C11 18.5884 10.9999 18.5884 10.9999 18.5884L10.9271 18.5882C10.88 18.5881 10.8108 18.5879 10.7224 18.5875C10.5456 18.5867 10.2916 18.585 9.98192 18.5817C9.36295 18.5751 8.52035 18.5619 7.6273 18.5353C6.73546 18.5088 5.78729 18.4689 4.95903 18.4085C4.15174 18.3496 3.39479 18.2674 2.92289 18.1412L2.91872 18.1401C2.37156 17.9904 1.87225 17.7021 1.46905 17.303C1.06585 16.904 0.772386 16.4077 0.617009 15.8621C0.61023 15.8383 0.604633 15.8142 0.60024 15.7898C0.301488 14.1336 0.156342 12.4533 0.16665 10.7703C0.158654 9.1 0.303789 7.43244 0.600234 5.78858C0.6032 5.77214 0.606715 5.75579 0.610772 5.73958C0.751709 5.1765 1.03874 4.66059 1.44289 4.24395C1.84703 3.82731 2.35396 3.5247 2.91249 3.36668L2.92287 3.36374C3.39477 3.23754 4.15174 3.15545 4.95903 3.09656C5.78729 3.03615 6.73546 2.99623 7.6273 2.96973C8.52035 2.94319 9.36295 2.92994 9.98192 2.92332C10.2916 2.92001 10.5456 2.91835 10.7224 2.91752C10.8108 2.9171 10.88 2.9169 10.9271 2.91679L10.9999 2.91669ZM18.6843 16.6935C18.3663 16.7776 17.746 16.8531 16.9318 16.9125C16.1342 16.9706 15.21 17.0098 14.3281 17.036C13.4474 17.0621 12.6148 17.0753 12.002 17.0818C11.6958 17.0851 11.4448 17.0867 11.2705 17.0875L11.0695 17.0883L11.0009 17.0884L11 17.8384C11 18.5884 10.9999 18.5884 10.9999 18.5884L11.0729 18.5882C11.12 18.5881 11.1892 18.5879 11.2776 18.5875C11.4544 18.5867 11.7084 18.585 12.0181 18.5817C12.637 18.5751 13.4796 18.5619 14.3727 18.5353C15.2645 18.5088 16.2127 18.4689 17.041 18.4085C17.8482 18.3496 18.6052 18.2674 19.0771 18.1412L19.0875 18.1384C19.646 17.9803 20.153 17.6777 20.5571 17.2611C20.9612 16.8445 21.2483 16.3285 21.3892 15.7655C21.3933 15.7492 21.3968 15.7329 21.3998 15.7164C21.6939 14.0848 21.8391 12.4298 21.8333 10.7719C21.8437 9.08879 21.6985 7.40831 21.3998 5.75188C21.3968 5.73545 21.3933 5.71912 21.3892 5.70292C21.2483 5.13984 20.9612 4.62392 20.5571 4.20728C20.153 3.79064 19.646 3.48803 19.0875 3.33001C19.0788 3.32755 19.07 3.32524 19.0612 3.32309C18.5953 3.20931 17.8438 3.13455 17.0362 3.08077C16.2093 3.02569 15.2622 2.98927 14.3708 2.96509C13.4782 2.94087 12.6361 2.92878 12.0174 2.92274C11.7079 2.91972 11.454 2.9182 11.2773 2.91745L11.0727 2.91678L10.9999 2.91669C10.9999 2.91669 11 2.91669 11 3.66669L11 4.41669L11.0697 4.41678L11.2709 4.41743C11.4452 4.41818 11.6963 4.41967 12.0027 4.42267C12.6158 4.42865 13.4488 4.44063 14.3301 4.46454C15.2124 4.48848 16.1376 4.52424 16.9366 4.57745C17.7438 4.63121 18.3659 4.69967 18.6921 4.77707C18.9915 4.8642 19.2632 5.02772 19.4804 5.25167C19.6954 5.47331 19.8496 5.74649 19.9284 6.04479C20.2077 7.60283 20.3433 9.18326 20.3333 10.7661L20.3333 10.7735C20.3389 12.3326 20.2034 13.889 19.9284 15.4236C19.8496 15.7219 19.6954 15.9951 19.4804 16.2167C19.2613 16.4426 18.9868 16.607 18.6843 16.6935Z" fill="white"/>
<path fill-rule="evenodd" clip-rule="evenodd" d="M8.56039 7.12502C8.79124 6.99073 9.0761 6.98934 9.30826 7.12137L14.5791 10.1189C14.8135 10.2522 14.9583 10.5011 14.9583 10.7708C14.9583 11.0405 14.8135 11.2894 14.5791 11.4228L9.30826 14.4203C9.0761 14.5523 8.79124 14.5509 8.56039 14.4166C8.32953 14.2823 8.1875 14.0354 8.1875 13.7683V7.77332C8.1875 7.50624 8.32953 7.25931 8.56039 7.12502ZM9.6875 9.06264V12.479L12.6912 10.7708L9.6875 9.06264Z" fill="white"/>
</svg>
