<svg width="22" height="22" viewBox="0 0 22 22" fill="none" xmlns="http://www.w3.org/2000/svg">
<path fill-rule="evenodd" clip-rule="evenodd" d="M17.4324 3C17.2265 3 17.0227 3.04055 16.8325 3.11933C16.6423 3.19811 16.4695 3.31358 16.3239 3.45914L4.25656 15.5265L3.42521 18.5748L6.4735 17.7434L18.5408 5.67608C18.6864 5.53051 18.8019 5.3577 18.8807 5.16751C18.9594 4.97732 19 4.77348 19 4.56761C19 4.36175 18.9594 4.1579 18.8807 3.96771C18.8019 3.77752 18.6864 3.60471 18.5408 3.45914C18.3953 3.31358 18.2225 3.19811 18.0323 3.11933C17.8421 3.04055 17.6382 3 17.4324 3ZM16.0671 1.27157C16.5 1.09228 16.9639 1 17.4324 1C17.9009 1 18.3648 1.09228 18.7976 1.27157C19.2305 1.45086 19.6238 1.71365 19.9551 2.04493C20.2863 2.37621 20.5491 2.7695 20.7284 3.20235C20.9077 3.63519 21 4.09911 21 4.56761C21 5.03611 20.9077 5.50003 20.7284 5.93288C20.5491 6.36572 20.2863 6.75901 19.9551 7.09029L7.69993 19.3454C7.57688 19.4685 7.42384 19.5573 7.25594 19.6031L2.26311 20.9648C1.9169 21.0592 1.54664 20.9609 1.29289 20.7071C1.03914 20.4534 0.940807 20.0831 1.03523 19.7369L2.39691 14.7441C2.4427 14.5762 2.53151 14.4231 2.65457 14.3001L14.9097 2.04493C15.241 1.71365 15.6343 1.45086 16.0671 1.27157Z" fill="white"/>
</svg>
