<svg width="22" height="22" viewBox="0 0 22 22" fill="none" xmlns="http://www.w3.org/2000/svg">
<g clip-path="url(#clip0_329_91)">
<g clip-path="url(#clip1_329_91)">
<path fill-rule="evenodd" clip-rule="evenodd" d="M20.8738 2.95952C21.2643 3.35004 21.2643 3.98321 20.8738 4.37373L11.7071 13.5404C11.3166 13.9309 10.6834 13.9309 10.2929 13.5404L7.54289 10.7904C7.15237 10.3999 7.15237 9.76671 7.54289 9.37619C7.93342 8.98566 8.56658 8.98566 8.95711 9.37619L11 11.4191L19.4596 2.95952C19.8501 2.56899 20.4833 2.56899 20.8738 2.95952Z" fill="white"/>
<path fill-rule="evenodd" clip-rule="evenodd" d="M4.58333 3.75C4.36232 3.75 4.15036 3.8378 3.99408 3.99408C3.8378 4.15036 3.75 4.36232 3.75 4.58333V17.4167C3.75 17.6377 3.8378 17.8496 3.99408 18.0059C4.15036 18.1622 4.36232 18.25 4.58333 18.25H17.4167C17.6377 18.25 17.8496 18.1622 18.0059 18.0059C18.1622 17.8496 18.25 17.6377 18.25 17.4167V11C18.25 10.4477 18.6977 10 19.25 10C19.8023 10 20.25 10.4477 20.25 11V17.4167C20.25 18.1681 19.9515 18.8888 19.4201 19.4201C18.8888 19.9515 18.1681 20.25 17.4167 20.25H4.58333C3.83189 20.25 3.11122 19.9515 2.57986 19.4201C2.04851 18.8888 1.75 18.1681 1.75 17.4167V4.58333C1.75 3.83189 2.04851 3.11122 2.57986 2.57986C3.11122 2.04851 3.83189 1.75 4.58333 1.75H14.6667C15.219 1.75 15.6667 2.19772 15.6667 2.75C15.6667 3.30228 15.219 3.75 14.6667 3.75H4.58333Z" fill="white"/>
</g>
</g>
<defs>
<clipPath id="clip0_329_91">
<rect width="22" height="22" fill="white"/>
</clipPath>
<clipPath id="clip1_329_91">
<rect width="22" height="22" fill="white"/>
</clipPath>
</defs>
</svg>
