<svg width="23" height="22" viewBox="0 0 23 22" fill="none" xmlns="http://www.w3.org/2000/svg">
<path fill-rule="evenodd" clip-rule="evenodd" d="M10.9041 4.26007C11.6761 3.97103 12.5195 3.92165 13.3206 4.11828C13.9765 4.27924 14.5795 4.59906 15.0755 5.04677C15.7175 4.82108 16.3257 4.51121 16.8834 4.12537C17.1105 3.96824 17.4112 3.96812 17.6384 4.12508C17.8656 4.28203 17.972 4.56327 17.9054 4.83131C17.647 5.87196 17.1268 6.82902 16.3962 7.61639C16.4091 7.74345 16.4157 7.87111 16.4162 7.99894L16.4162 8.00118C16.4162 12.4949 14.2114 15.7786 11.0615 17.423C7.92926 19.0583 3.92261 19.0425 0.346295 17.0937C0.0755291 16.9462 -0.0580019 16.6316 0.023938 16.3344C0.105878 16.0371 0.381715 15.8354 0.689837 15.8474C2.02652 15.8996 3.34859 15.6273 4.54151 15.0634C3.35715 14.3694 2.51352 13.5378 1.93333 12.6392C1.18451 11.4795 0.900822 10.2493 0.849499 9.14186C0.798328 8.03766 0.977181 7.04278 1.16542 6.32886C1.25996 5.97032 1.358 5.67836 1.43347 5.47363C1.47124 5.37115 1.50347 5.29021 1.52695 5.23337C1.53869 5.20494 1.54825 5.18251 1.55524 5.1664C1.55873 5.15834 1.56158 5.15186 1.56374 5.147L1.56645 5.14092L1.5674 5.13879L1.56778 5.13796C1.56794 5.13761 1.56808 5.13729 2.17279 5.41129L2.71258 5.02481C3.41063 5.99975 4.34462 6.79154 5.43229 7.32852C6.32702 7.77023 7.30244 8.02801 8.29865 8.08833V8.02772C8.28847 7.21132 8.53375 6.41257 8.99979 5.7392C9.4666 5.06471 10.1319 4.54915 10.9041 4.26007ZM2.42729 6.75262C2.27082 7.37104 2.13464 8.19117 2.17585 9.08039C2.21883 10.0078 2.4538 10.9975 3.04878 11.919C3.64138 12.8368 4.6175 13.728 6.21016 14.4223C6.43289 14.5194 6.58478 14.7304 6.60618 14.9724C6.62757 15.2144 6.51504 15.4488 6.31279 15.5835C5.40403 16.1885 4.40118 16.6292 3.35118 16.8927C5.85626 17.5895 8.38834 17.3208 10.447 16.246C13.1436 14.8382 15.088 12.0176 15.0884 8.00236C15.0878 7.8385 15.0717 7.67502 15.0403 7.51399C14.9973 7.29342 15.0688 7.06607 15.2304 6.90983C15.4655 6.68232 15.6767 6.43436 15.8616 6.16979C15.6059 6.27168 15.3452 6.36193 15.0803 6.44017C14.8333 6.51313 14.5664 6.43663 14.3955 6.24393C14.0316 5.83346 13.5462 5.54082 13.0042 5.40778C12.462 5.27472 11.8912 5.30828 11.3696 5.50356C10.8481 5.69879 10.4025 6.04558 10.0916 6.49483C9.78077 6.94389 9.61897 7.47427 9.62636 8.0143L9.62642 8.02337V8.76334C9.62642 9.12342 9.33937 9.41786 8.97941 9.42701C7.54646 9.46346 6.12605 9.15179 4.84451 8.5191C3.938 8.07156 3.12056 7.47305 2.42729 6.75262Z" fill="white"/>
<path d="M10.035 19.0751C9.82812 19.0751 9.72467 18.9882 9.72467 18.8144V11.3562C10.104 11.2958 10.5307 11.2467 11.0048 11.2089C11.479 11.1635 11.9574 11.1409 12.4402 11.1409C13.4747 11.1409 14.2247 11.3411 14.6902 11.7416C15.1557 12.1345 15.3884 12.7315 15.3884 13.5325C15.3884 14.0992 15.2376 14.5601 14.9359 14.9153C14.6428 15.2705 14.2505 15.5236 13.7591 15.6747C13.966 15.8939 14.1729 16.1508 14.3798 16.4455C14.5953 16.7402 14.7936 17.0424 14.9746 17.3522C15.1643 17.6621 15.3324 17.9681 15.479 18.2704C15.6341 18.5726 15.7548 18.8409 15.841 19.0751H14.716C14.5953 19.0751 14.5048 19.0562 14.4445 19.0184C14.3928 18.9731 14.3496 18.9089 14.3152 18.8257C14.2376 18.6368 14.1298 18.4215 13.9919 18.1797C13.8626 17.9303 13.716 17.6772 13.5522 17.4203C13.3971 17.1558 13.2247 16.8951 13.035 16.6382C12.8453 16.3737 12.6514 16.1357 12.4531 15.9241H11.0695V19.0751H10.035ZM11.0695 15.006H12.4919C12.716 15.006 12.9229 14.9871 13.1126 14.9493C13.3109 14.904 13.479 14.8284 13.6169 14.7226C13.7634 14.6168 13.8755 14.4695 13.9531 14.2806C14.0307 14.0841 14.0695 13.8385 14.0695 13.5438C14.0695 13.2491 14.035 13.0073 13.966 12.8184C13.8971 12.6295 13.7936 12.4784 13.6557 12.365C13.5264 12.2517 13.3583 12.1761 13.1514 12.1383C12.9445 12.093 12.7031 12.0703 12.4272 12.0703C12.1341 12.0703 11.8712 12.0779 11.6385 12.093C11.4057 12.1081 11.216 12.127 11.0695 12.1497V15.006Z" fill="white"/>
<path d="M18.6824 12.2177H16.6264C16.4195 12.2177 16.316 12.1308 16.316 11.957V11.2202H22.1091C22.2039 11.2202 22.2772 11.2429 22.3289 11.2882C22.3893 11.3336 22.4195 11.3978 22.4195 11.4809V12.2177H20.0402V19.0751H18.9927C18.7859 19.0751 18.6824 18.9882 18.6824 18.8144V12.2177Z" fill="white"/>
</svg>
