<svg width="30" height="30" viewBox="0 0 30 30" fill="none" xmlns="http://www.w3.org/2000/svg">
<path fill-rule="evenodd" clip-rule="evenodd" d="M3 3.75C3 3.33579 3.33579 3 3.75 3H12.5C12.9142 3 13.25 3.33579 13.25 3.75V12.5C13.25 12.9142 12.9142 13.25 12.5 13.25H3.75C3.33579 13.25 3 12.9142 3 12.5V3.75ZM4.5 4.5V11.75H11.75V4.5H4.5Z" fill="white"/>
<path fill-rule="evenodd" clip-rule="evenodd" d="M16.75 3.75C16.75 3.33579 17.0858 3 17.5 3H26.25C26.6642 3 27 3.33579 27 3.75V12.5C27 12.9142 26.6642 13.25 26.25 13.25H17.5C17.0858 13.25 16.75 12.9142 16.75 12.5V3.75ZM18.25 4.5V11.75H25.5V4.5H18.25Z" fill="white"/>
<path fill-rule="evenodd" clip-rule="evenodd" d="M16.75 17.5C16.75 17.0858 17.0858 16.75 17.5 16.75H26.25C26.6642 16.75 27 17.0858 27 17.5V26.25C27 26.6642 26.6642 27 26.25 27H17.5C17.0858 27 16.75 26.6642 16.75 26.25V17.5ZM18.25 18.25V25.5H25.5V18.25H18.25Z" fill="white"/>
<path fill-rule="evenodd" clip-rule="evenodd" d="M3 17.5C3 17.0858 3.33579 16.75 3.75 16.75H12.5C12.9142 16.75 13.25 17.0858 13.25 17.5V26.25C13.25 26.6642 12.9142 27 12.5 27H3.75C3.33579 27 3 26.6642 3 26.25V17.5ZM4.5 18.25V25.5H11.75V18.25H4.5Z" fill="white"/>
</svg>
