<svg width="22" height="22" viewBox="0 0 22 22" fill="none" xmlns="http://www.w3.org/2000/svg">
<path d="M10.8571 15.7143C12.107 15.713 13.3054 15.2159 14.1892 14.3321C15.073 13.4482 15.5701 12.2499 15.5714 11V4.71429C15.5714 3.46398 15.0747 2.26488 14.1906 1.38078C13.3065 0.496682 12.1074 0 10.8571 0C9.60684 0 8.40774 0.496682 7.52364 1.38078C6.63954 2.26488 6.14286 3.46398 6.14286 4.71429V11C6.14416 12.2499 6.64126 13.4482 7.52508 14.3321C8.40889 15.2159 9.60724 15.713 10.8571 15.7143ZM7.71429 4.71429C7.71429 3.88075 8.04541 3.08135 8.63481 2.49195C9.22421 1.90255 10.0236 1.57143 10.8571 1.57143C11.6907 1.57143 12.4901 1.90255 13.0795 2.49195C13.6689 3.08135 14 3.88075 14 4.71429V11C14 11.8335 13.6689 12.6329 13.0795 13.2223C12.4901 13.8117 11.6907 14.1429 10.8571 14.1429C10.0236 14.1429 9.22421 13.8117 8.63481 13.2223C8.04541 12.6329 7.71429 11.8335 7.71429 11V4.71429ZM11.6429 18.8179V21.2143C11.6429 21.4227 11.5601 21.6225 11.4127 21.7699C11.2654 21.9172 11.0655 22 10.8571 22C10.6488 22 10.4489 21.9172 10.3016 21.7699C10.1542 21.6225 10.0714 21.4227 10.0714 21.2143V18.8179C8.13429 18.6207 6.33905 17.7123 5.03288 16.2683C3.72671 14.8242 3.00239 12.9471 3 11C3 10.7916 3.08278 10.5918 3.23013 10.4444C3.37748 10.2971 3.57733 10.2143 3.78571 10.2143C3.9941 10.2143 4.19395 10.2971 4.3413 10.4444C4.48865 10.5918 4.57143 10.7916 4.57143 11C4.57143 12.6671 5.23367 14.2659 6.41247 15.4447C7.59127 16.6235 9.19007 17.2857 10.8571 17.2857C12.5242 17.2857 14.123 16.6235 15.3018 15.4447C16.4806 14.2659 17.1429 12.6671 17.1429 11C17.1429 10.7916 17.2256 10.5918 17.373 10.4444C17.5203 10.2971 17.7202 10.2143 17.9286 10.2143C18.137 10.2143 18.3368 10.2971 18.4842 10.4444C18.6315 10.5918 18.7143 10.7916 18.7143 11C18.7119 12.9471 17.9876 14.8242 16.6814 16.2683C15.3752 17.7123 13.58 18.6207 11.6429 18.8179Z" fill="white"/>
</svg>
