<svg width="22" height="22" viewBox="0 0 22 22" fill="none" xmlns="http://www.w3.org/2000/svg">
<path fill-rule="evenodd" clip-rule="evenodd" d="M11 2.75C6.44365 2.75 2.75 6.44365 2.75 11C2.75 15.5563 6.44365 19.25 11 19.25C15.5563 19.25 19.25 15.5563 19.25 11C19.25 6.44365 15.5563 2.75 11 2.75ZM1.25 11C1.25 5.61522 5.61522 1.25 11 1.25C16.3848 1.25 20.75 5.61522 20.75 11C20.75 16.3848 16.3848 20.75 11 20.75C5.61522 20.75 1.25 16.3848 1.25 11Z" fill="white"/>
<path fill-rule="evenodd" clip-rule="evenodd" d="M11.2575 7.27405C10.8036 7.19619 10.3369 7.28149 9.93984 7.51482C9.54282 7.74815 9.24118 8.11447 9.08837 8.54888C8.95091 8.93963 8.52272 9.14496 8.13198 9.0075C7.74124 8.87005 7.53591 8.44186 7.67336 8.05112C7.94373 7.28254 8.47739 6.63444 9.17981 6.22162C9.88224 5.8088 10.7081 5.6579 11.5111 5.79564C12.3141 5.93338 13.0425 6.35087 13.5672 6.97418C14.0918 7.59731 14.3789 8.38595 14.3779 9.20046C14.3776 10.4984 13.4141 11.3689 12.6939 11.849C12.3109 12.1044 11.9333 12.2926 11.6543 12.4166C11.5138 12.4791 11.3957 12.5264 11.3109 12.5587C11.2684 12.5749 11.2342 12.5873 11.2094 12.5961L11.1796 12.6066L11.1704 12.6097L11.1672 12.6108L11.166 12.6112C11.1658 12.6113 11.165 12.6115 10.9367 11.9265L11.165 12.6115C10.7721 12.7425 10.3473 12.5301 10.2164 12.1372C10.0855 11.7447 10.2972 11.3205 10.6893 11.1889C10.6898 11.1888 10.6902 11.1886 10.6907 11.1885L10.9279 11.9C10.6907 11.1885 10.6909 11.1884 10.6907 11.1885L10.7069 11.1828C10.7218 11.1775 10.7455 11.1689 10.7769 11.1569C10.8398 11.133 10.9325 11.0959 11.0451 11.0459C11.2724 10.9449 11.5698 10.7956 11.8618 10.601C12.4915 10.1812 12.8779 9.70185 12.8779 9.2L12.8779 9.19888C12.8786 8.73837 12.7162 8.29248 12.4197 7.94018C12.1231 7.58787 11.7114 7.3519 11.2575 7.27405Z" fill="white"/>
<path fill-rule="evenodd" clip-rule="evenodd" d="M10.25 15.5C10.25 15.0858 10.5858 14.75 11 14.75H11.009C11.4232 14.75 11.759 15.0858 11.759 15.5C11.759 15.9142 11.4232 16.25 11.009 16.25H11C10.5858 16.25 10.25 15.9142 10.25 15.5Z" fill="white"/>
</svg>
