<?xml version="1.0" encoding="utf-8"?>
<!-- Generator: Adobe Illustrator 27.4.0, SVG Export Plug-In . SVG Version: 6.00 Build 0)  -->
<svg version="1.1" id="レイヤー_1" xmlns="http://www.w3.org/2000/svg" xmlns:xlink="http://www.w3.org/1999/xlink" x="0px"
	 y="0px" viewBox="0 0 121 110" style="enable-background:new 0 0 121 110;" xml:space="preserve">
<style type="text/css">
	.st0{fill:#D9D9D9;}
	.st1{fill:#F15A24;}
</style>
<g id="YiCElG_00000155139851726865583260000004284674795812307869_">
	
		<image style="overflow:visible;" width="342" height="258" id="YiCElG_00000001645971765722770150000006130318727277150081_" xlink:href="26E749DA139014AF.png"  transform="matrix(0.5211 0 0 0.5211 248.9395 0.73)">
	</image>
</g>
<path class="st0" d="M97.2,8.7C94.5,3.9,87.7,0,82.2,0H38.8c-5.5,0-12.2,3.9-15,8.7L2.1,46.3c-2.7,4.8-2.7,12.6,0,17.3l21.7,37.7
	c2.7,4.8,9.5,8.7,15,8.7h43.5c5.5,0,12.2-3.9,15-8.7l21.7-37.7c2.7-4.8,2.7-12.6,0-17.3L97.2,8.7z"/>
<g>
	<path class="st1" d="M350.1,10.5c5.7,0,12.8,4.1,15.7,9l24.1,41.7c2.8,4.9,2.8,13.2,0,18.1l-24.1,41.7c-2.8,4.9-10,9-15.7,9h-48.2
		c-5.7,0-12.8-4.1-15.7-9l-24.1-41.7c-2.8-4.9-2.8-13.2,0-18.1l24.1-41.7c2.8-4.9,10-9,15.7-9H350.1 M350.1,9.4h-48.2
		c-6.1,0-13.6,4.3-16.6,9.6l-24.1,41.7c-3,5.3-3,13.9,0,19.2l24.1,41.7c3,5.3,10.5,9.6,16.6,9.6h48.2c6.1,0,13.6-4.3,16.6-9.6
		l24.1-41.7c3-5.3,3-13.9,0-19.2L366.7,19C363.7,13.7,356.2,9.4,350.1,9.4L350.1,9.4z"/>
</g>
</svg>
