<svg width="75" height="22" viewBox="0 0 75 22" fill="none" xmlns="http://www.w3.org/2000/svg">
<path d="M13.3105 9.35C13.3105 10.5 13.2522 11.5167 13.1355 12.4C13.0189 13.2667 12.8522 14.025 12.6355 14.675C12.4355 15.325 12.1772 15.875 11.8605 16.325C11.5605 16.7583 11.2105 17.1083 10.8105 17.375C11.1439 17.7583 11.5439 18.275 12.0105 18.925C12.4939 19.575 12.9772 20.3417 13.4605 21.225H9.66055C9.36055 21.225 9.14388 21.1583 9.01055 21.025C8.87721 20.8917 8.70221 20.6583 8.48555 20.325C8.26888 19.9917 8.02721 19.6333 7.76055 19.25C7.49388 18.8833 7.26888 18.5833 7.08555 18.35H6.78555C5.80221 18.35 4.91055 18.2417 4.11055 18.025C3.31055 17.825 2.62721 17.4083 2.06055 16.775C1.49388 16.125 1.05221 15.2083 0.735547 14.025C0.41888 12.8417 0.260547 11.2833 0.260547 9.35C0.260547 7.41667 0.41888 5.85833 0.735547 4.675C1.05221 3.49167 1.49388 2.58333 2.06055 1.95C2.62721 1.3 3.31055 0.874999 4.11055 0.675C4.91055 0.458333 5.80221 0.349999 6.78555 0.349999C7.75221 0.349999 8.63555 0.458333 9.43555 0.675C10.2522 0.874999 10.9439 1.3 11.5105 1.95C12.0772 2.58333 12.5189 3.49167 12.8355 4.675C13.1522 5.85833 13.3105 7.41667 13.3105 9.35ZM4.68555 9.35C4.68555 10.5333 4.71055 11.4917 4.76055 12.225C4.82721 12.9417 4.93555 13.5 5.08555 13.9C5.23555 14.3 5.44388 14.5667 5.71055 14.7C5.99388 14.8333 6.35221 14.9 6.78555 14.9C7.21888 14.9 7.56888 14.8333 7.83555 14.7C8.11888 14.5667 8.33555 14.3 8.48555 13.9C8.63555 13.5 8.73555 12.9417 8.78555 12.225C8.85221 11.4917 8.88555 10.5333 8.88555 9.35C8.88555 8.18333 8.85221 7.24167 8.78555 6.525C8.73555 5.79167 8.63555 5.225 8.48555 4.825C8.33555 4.425 8.11888 4.15833 7.83555 4.025C7.56888 3.875 7.21888 3.8 6.78555 3.8C6.35221 3.8 5.99388 3.875 5.71055 4.025C5.44388 4.15833 5.23555 4.425 5.08555 4.825C4.93555 5.225 4.82721 5.79167 4.76055 6.525C4.71055 7.24167 4.68555 8.18333 4.68555 9.35ZM16.9146 18C16.298 18 15.9896 17.7083 15.9896 17.125V0.974999C16.923 0.791666 17.8563 0.658333 18.7896 0.574999C19.7396 0.475 20.673 0.425 21.5896 0.425C23.5896 0.425 25.0896 0.866666 26.0896 1.75C27.0896 2.63333 27.5896 4.075 27.5896 6.075C27.5896 6.49167 27.548 6.925 27.4646 7.375C27.398 7.80833 27.273 8.23333 27.0896 8.65C26.923 9.05 26.6813 9.425 26.3646 9.775C26.0646 10.125 25.6813 10.425 25.2146 10.675C25.5646 11.125 25.898 11.6417 26.2146 12.225C26.548 12.7917 26.8563 13.4 27.1396 14.05C27.423 14.7 27.6813 15.3667 27.9146 16.05C28.148 16.7167 28.3396 17.3667 28.4896 18H24.8896C24.5896 18 24.348 17.9417 24.1646 17.825C23.9813 17.7083 23.8396 17.4917 23.7396 17.175C23.4396 16.175 23.073 15.1833 22.6396 14.2C22.2063 13.2167 21.798 12.3833 21.4146 11.7H20.2396V18H16.9146ZM20.2396 8.525H21.5646C21.8146 8.525 22.048 8.49167 22.2646 8.425C22.498 8.34167 22.698 8.20833 22.8646 8.025C23.048 7.84167 23.1896 7.59167 23.2896 7.275C23.3896 6.95833 23.4396 6.55 23.4396 6.05C23.4396 5.51667 23.398 5.09167 23.3146 4.775C23.2313 4.45833 23.1063 4.21667 22.9396 4.05C22.773 3.86667 22.5646 3.75 22.3146 3.7C22.0646 3.63333 21.7813 3.6 21.4646 3.6C21.398 3.6 21.3063 3.6 21.1896 3.6C21.0896 3.6 20.9813 3.60833 20.8646 3.625C20.748 3.625 20.6313 3.63333 20.5146 3.65C20.398 3.65 20.3063 3.65 20.2396 3.65V8.525ZM39.7934 0.675C40.41 0.675 40.7184 0.966666 40.7184 1.55V4.125H34.6684V7.425H39.0684C39.685 7.425 39.9934 7.71667 39.9934 8.3V10.875H34.6684V14.55H40.0434C40.66 14.55 40.9684 14.8417 40.9684 15.425V18H31.3434C30.7267 18 30.4184 17.7083 30.4184 17.125V0.675H39.7934ZM51.9572 7.825L50.2072 18H46.5322C46.2156 18 45.9822 17.9333 45.8322 17.8C45.6822 17.6667 45.5656 17.4667 45.4822 17.2C45.2156 16.3833 44.9406 15.325 44.6572 14.025C44.3906 12.7083 44.1322 11.2917 43.8822 9.775C43.6322 8.25833 43.3989 6.70833 43.1822 5.125C42.9822 3.54167 42.8239 2.05833 42.7072 0.675H46.2072C46.5239 0.675 46.7489 0.766666 46.8822 0.949999C47.0156 1.13333 47.0906 1.36667 47.1072 1.65C47.1572 2.58333 47.1989 3.49167 47.2322 4.375C47.2822 5.24167 47.3489 6.15 47.4322 7.1C47.5156 8.05 47.6239 9.06667 47.7572 10.15C47.8906 11.2333 48.0572 12.4417 48.2572 13.775L50.2072 2.1H53.1322C53.4322 2.1 53.6406 2.18333 53.7572 2.35C53.8739 2.51667 53.9572 2.75833 54.0072 3.075L55.7322 13.775C55.9322 12.4917 56.0989 11.2917 56.2322 10.175C56.3656 9.05833 56.4739 7.98333 56.5572 6.95C56.6572 5.9 56.7406 4.86667 56.8072 3.85C56.8739 2.81667 56.9322 1.75833 56.9822 0.675H60.3072C60.5572 0.675 60.7489 0.75 60.8822 0.9C61.0156 1.05 61.0822 1.31667 61.0822 1.7C61.0822 1.81667 61.0739 1.96667 61.0572 2.15C61.0406 2.31667 61.0156 2.55833 60.9822 2.875C60.8989 3.725 60.7739 4.76667 60.6072 6C60.4406 7.23333 60.2406 8.54167 60.0072 9.925C59.7906 11.2917 59.5322 12.6833 59.2322 14.1C58.9322 15.5 58.5989 16.8 58.2322 18H54.4822C54.1822 18 53.9489 17.9167 53.7822 17.75C53.6322 17.5667 53.5322 17.3333 53.4822 17.05L51.9572 7.825ZM73.9035 4.1C72.7035 5.81667 71.5202 7.55 70.3535 9.3C69.2035 11.05 68.1952 12.7667 67.3285 14.45H73.1785C73.7952 14.45 74.1035 14.7417 74.1035 15.325V18H63.6035C62.9868 18 62.6785 17.7083 62.6785 17.125V14.7C63.6785 12.7667 64.7035 10.9667 65.7535 9.3C66.8035 7.61667 67.9452 5.925 69.1785 4.225H63.7285C63.1118 4.225 62.8035 3.93333 62.8035 3.35V0.675H72.9785C73.5952 0.675 73.9035 0.966666 73.9035 1.55V4.1Z" fill="white"/>
</svg>
